{
    "asset": {
        "generator": "COLLADA2GLTF",
        "version": "2.0"
    },
    "scenes": [
        {
            "nodes": [
                0
            ]
        }
    ],
    "scene": 0,
    "nodes": [
        {
            "children": [
                1
            ],
            "matrix": [
                1.0,
                0.0,
                0.0,
                0.0,
                0.0,
                0.0,
                -1.0,
                0.0,
                0.0,
                1.0,
                0.0,
                0.0,
                0.0,
                0.0,
                0.0,
                1.0
            ],
            "name": "Z_UP"
        },
        {
            "children": [
                7,
                2
            ],
            "name": "SketchUp"
        },
        {
            "mesh": 0,
            "children": [
                6,
                5,
                4,
                3
            ],
            "matrix": [
                -0.0,
                -1.0,
                0.0,
                0.0,
                1.0,
                -0.0,
                0.0,
                0.0,
                0.0,
                0.0,
                1.0,
                0.0,
                -0.4262378215789795,
                1.1086915731430054,
                0.03952333331108093,
                1.0
            ],
            "name": "group_0"
        },
        {
            "mesh": 1
        },
        {
            "mesh": 2
        },
        {
            "mesh": 3
        },
        {
            "mesh": 4
        },
        {
            "matrix": [
                1.0,
                -0.0,
                0.0,
                0.0,
                -0.0,
                1.0,
                -0.0,
                0.0,
                0.0,
                -0.0,
                1.0,
                0.0,
                -0.932137966156006,
                -0.010525114834308625,
                89.83430480957031,
                1.0
            ],
            "camera": 0,
            "name": "skp_camera_Last_Saved_SketchUp_View"
        }
    ],
    "cameras": [
        {
            "orthographic": {
                "xmag": 1.0,
                "ymag": 1.0,
                "zfar": 25.399999618530278,
                "znear": 0.02539999969303608
            },
            "type": "orthographic",
            "name": "skp_camera_Last_Saved_SketchUp_View"
        }
    ],
    "meshes": [
        {
            "primitives": [
                {
                    "attributes": {
                        "NORMAL": 1,
                        "POSITION": 2
                    },
                    "indices": 0,
                    "mode": 4,
                    "material": 0
                }
            ],
            "name": "ID4"
        },
        {
            "primitives": [
                {
                    "attributes": {
                        "NORMAL": 4,
                        "POSITION": 5
                    },
                    "indices": 3,
                    "mode": 4,
                    "material": 1
                }
            ],
            "name": "ID38"
        },
        {
            "primitives": [
                {
                    "attributes": {
                        "NORMAL": 7,
                        "POSITION": 8
                    },
                    "indices": 6,
                    "mode": 4,
                    "material": 2
                }
            ],
            "name": "ID30"
        },
        {
            "primitives": [
                {
                    "attributes": {
                        "NORMAL": 10,
                        "POSITION": 11
                    },
                    "indices": 9,
                    "mode": 4,
                    "material": 3
                },
                {
                    "attributes": {
                        "NORMAL": 13,
                        "POSITION": 14
                    },
                    "indices": 12,
                    "mode": 4,
                    "material": 4
                }
            ],
            "name": "ID20"
        },
        {
            "primitives": [
                {
                    "attributes": {
                        "NORMAL": 16,
                        "POSITION": 17
                    },
                    "indices": 15,
                    "mode": 4,
                    "material": 5
                }
            ],
            "name": "ID12"
        }
    ],
    "accessors": [
        {
            "bufferView": 0,
            "byteOffset": 0,
            "componentType": 5123,
            "count": 15414,
            "max": [
                3115
            ],
            "min": [
                0
            ],
            "type": "SCALAR"
        },
        {
            "bufferView": 1,
            "byteOffset": 0,
            "componentType": 5126,
            "count": 3116,
            "max": [
                0.9997133016586304,
                0.9999966025352478,
                0.9997217059135436
            ],
            "min": [
                -0.9997133016586304,
                -0.9999966025352478,
                -0.9997217059135436
            ],
            "type": "VEC3"
        },
        {
            "bufferView": 1,
            "byteOffset": 37392,
            "componentType": 5126,
            "count": 3116,
            "max": [
                2.38294792175293,
                0.588844895362854,
                14.492558479309082
            ],
            "min": [
                0.0,
                0.3097398579120636,
                0.0
            ],
            "type": "VEC3"
        },
        {
            "bufferView": 0,
            "byteOffset": 30828,
            "componentType": 5123,
            "count": 102,
            "max": [
                33
            ],
            "min": [
                0
            ],
            "type": "SCALAR"
        },
        {
            "bufferView": 1,
            "byteOffset": 74784,
            "componentType": 5126,
            "count": 34,
            "max": [
                0.3086698055267334,
                0.2614535093307495,
                0.999691903591156
            ],
            "min": [
                -0.3086698055267334,
                -0.2614535093307495,
                -0.999691903591156
            ],
            "type": "VEC3"
        },
        {
            "bufferView": 1,
            "byteOffset": 75192,
            "componentType": 5126,
            "count": 34,
            "max": [
                4.02618408203125,
                0.9155725240707398,
                14.565773963928225
            ],
            "min": [
                2.2917017936706545,
                0.0,
                14.303784370422364
            ],
            "type": "VEC3"
        },
        {
            "bufferView": 0,
            "byteOffset": 31032,
            "componentType": 5123,
            "count": 81,
            "max": [
                18
            ],
            "min": [
                0
            ],
            "type": "SCALAR"
        },
        {
            "bufferView": 1,
            "byteOffset": 75600,
            "componentType": 5126,
            "count": 19,
            "max": [
                -0.1484138071537018,
                0.943093717098236,
                0.9887362718582152
            ],
            "min": [
                -0.8426790833473206,
                -0.943145990371704,
                -0.1336490958929062
            ],
            "type": "VEC3"
        },
        {
            "bufferView": 1,
            "byteOffset": 75828,
            "componentType": 5126,
            "count": 19,
            "max": [
                3.5250251293182379,
                0.8409878015518189,
                14.818796157836914
            ],
            "min": [
                2.261984825134278,
                0.08043407648801804,
                14.303784370422364
            ],
            "type": "VEC3"
        },
        {
            "bufferView": 0,
            "byteOffset": 31194,
            "componentType": 5123,
            "count": 66,
            "max": [
                15
            ],
            "min": [
                0
            ],
            "type": "SCALAR"
        },
        {
            "bufferView": 1,
            "byteOffset": 76056,
            "componentType": 5126,
            "count": 16,
            "max": [
                0.4746086895465851,
                0.3101457059383393,
                -0.8800094127655029
            ],
            "min": [
                -0.1953275054693222,
                -0.3466736972332001,
                -0.999691903591156
            ],
            "type": "VEC3"
        },
        {
            "bufferView": 1,
            "byteOffset": 76248,
            "componentType": 5126,
            "count": 16,
            "max": [
                3.89003849029541,
                0.7965081334114075,
                14.545339584350586
            ],
            "min": [
                2.8313374519348146,
                0.11906442791223526,
                14.256985664367676
            ],
            "type": "VEC3"
        },
        {
            "bufferView": 0,
            "byteOffset": 31326,
            "componentType": 5123,
            "count": 66,
            "max": [
                15
            ],
            "min": [
                0
            ],
            "type": "SCALAR"
        },
        {
            "bufferView": 1,
            "byteOffset": 76440,
            "componentType": 5126,
            "count": 16,
            "max": [
                0.1953275054693222,
                0.3466736972332001,
                0.999691903591156
            ],
            "min": [
                -0.4746086895465851,
                -0.3101457059383393,
                0.8800094127655029
            ],
            "type": "VEC3"
        },
        {
            "bufferView": 1,
            "byteOffset": 76632,
            "componentType": 5126,
            "count": 16,
            "max": [
                3.89003849029541,
                0.7965081334114075,
                14.545339584350586
            ],
            "min": [
                2.8313374519348146,
                0.11906442791223526,
                14.256985664367676
            ],
            "type": "VEC3"
        },
        {
            "bufferView": 0,
            "byteOffset": 31458,
            "componentType": 5123,
            "count": 78,
            "max": [
                19
            ],
            "min": [
                0
            ],
            "type": "SCALAR"
        },
        {
            "bufferView": 1,
            "byteOffset": 76824,
            "componentType": 5126,
            "count": 20,
            "max": [
                0.9889214038848876,
                0.9998130202293396,
                0.9887362718582152
            ],
            "min": [
                -0.2696864902973175,
                -0.9998130202293396,
                -0.05615200102329254
            ],
            "type": "VEC3"
        },
        {
            "bufferView": 1,
            "byteOffset": 77064,
            "componentType": 5126,
            "count": 20,
            "max": [
                4.02618408203125,
                0.9185205698013306,
                14.866662979125977
            ],
            "min": [
                2.914125919342041,
                0.0,
                14.39249324798584
            ],
            "type": "VEC3"
        }
    ],
    "materials": [
        {
            "pbrMetallicRoughness": {
                "baseColorFactor": [
                    0.882352888584137,
                    0.886274516582489,
                    0.901960790157318,
                    1.0
                ],
                "metallicFactor": 0.0
            },
            "name": "ID6"
        },
        {
            "pbrMetallicRoughness": {
                "baseColorFactor": [
                    0.7490196228027344,
                    0.7490196228027344,
                    0.7490196228027344,
                    1.0
                ],
                "metallicFactor": 0.0
            },
            "name": "ID14"
        },
        {
            "pbrMetallicRoughness": {
                "baseColorFactor": [
                    0.415686309337616,
                    0.5490195751190186,
                    0.415686309337616,
                    1.0
                ],
                "metallicFactor": 0.0
            },
            "name": "ID32"
        },
        {
            "pbrMetallicRoughness": {
                "baseColorFactor": [
                    0.5882353186607361,
                    0.8274509906768799,
                    1.0,
                    1.0
                ],
                "metallicFactor": 0.0
            },
            "name": "ID22"
        },
        {
            "pbrMetallicRoughness": {
                "baseColorFactor": [
                    1.0,
                    1.0,
                    1.0,
                    1.0
                ],
                "metallicFactor": 0.0
            },
            "name": "ID27"
        },
        {
            "pbrMetallicRoughness": {
                "baseColorFactor": [
                    0.7490196228027344,
                    0.7490196228027344,
                    0.7490196228027344,
                    1.0
                ],
                "metallicFactor": 0.0
            },
            "name": "ID14"
        }
    ],
    "bufferViews": [
        {
            "buffer": 0,
            "byteOffset": 77304,
            "byteLength": 31614,
            "target": 34963
        },
        {
            "buffer": 0,
            "byteOffset": 0,
            "byteLength": 77304,
            "byteStride": 12,
            "target": 34962
        }
    ],
    "buffers": [
        {
            "byteLength": 108918,
            "uri": "data:application/octet-stream;base64,"
        }
    ]
}
