{
  "accessors": [
    {
      "name": "Mesh1 Group1 Model_1_0_positions",
      "componentType": 5126,
      "count": 144,
      "min": [
        -0.6044650077819824,
        7.069980144500732,
        -0.07670699805021286
      ],
      "max": [
        2.3655099868774414,
        7.228829860687256,
        0.08214420080184937
      ],
      "type": "VEC3",
      "bufferView": 0,
      "byteOffset": 0
    },
    {
      "name": "Mesh1 Group1 Model_1_0_normals",
      "componentType": 5126,
      "count": 144,
      "min": [
        -1,
        -0.9928203225135803,
        -0.9928203225135803
      ],
      "max": [
        1,
        0.9928203225135803,
        0.9928203225135803
      ],
      "type": "VEC3",
      "bufferView": 1,
      "byteOffset": 0
    },
    {
      "name": "Mesh1 Group1 Model_1_0_texcoords",
      "componentType": 5126,
      "count": 144,
      "min": [
        -3.880429983139038,
        -10.85830020904541
      ],
      "max": [
        3.880429983139038,
        0.907988429069519
      ],
      "type": "VEC2",
      "bufferView": 2,
      "byteOffset": 0
    },
    {
      "name": "Mesh1 Group1 Model_1_0_indices",
      "componentType": 5123,
      "count": 276,
      "min": [
        0
      ],
      "max": [
        143
      ],
      "type": "SCALAR",
      "bufferView": 3,
      "byteOffset": 0
    },
    {
      "name": "Mesh2 Group1 Model_1_0_positions",
      "componentType": 5126,
      "count": 216,
      "min": [
        -0.26946601271629333,
        0.013986499980092049,
        -0.26359501481056213
      ],
      "max": [
        0.2743400037288666,
        10.007399559020996,
        0.2802110016345978
      ],
      "type": "VEC3",
      "bufferView": 0,
      "byteOffset": 1728
    },
    {
      "name": "Mesh2 Group1 Model_1_0_normals",
      "componentType": 5126,
      "count": 216,
      "min": [
        -1,
        0,
        -1
      ],
      "max": [
        1,
        1,
        1
      ],
      "type": "VEC3",
      "bufferView": 1,
      "byteOffset": 1728
    },
    {
      "name": "Mesh2 Group1 Model_1_0_texcoords",
      "componentType": 5126,
      "count": 216,
      "min": [
        -0.44203799962997437,
        -15.416299819946289
      ],
      "max": [
        2.8025200366973877,
        1.459663987159729
      ],
      "type": "VEC2",
      "bufferView": 2,
      "byteOffset": 1152
    },
    {
      "name": "Mesh2 Group1 Model_1_0_indices",
      "componentType": 5123,
      "count": 432,
      "min": [
        0
      ],
      "max": [
        215
      ],
      "type": "SCALAR",
      "bufferView": 3,
      "byteOffset": 552
    },
    {
      "name": "Mesh2 Group1 Model_1_1_positions",
      "componentType": 5126,
      "count": 58,
      "min": [
        -0.26946601271629333,
        0.013986499980092049,
        -0.26359501481056213
      ],
      "max": [
        0.2743400037288666,
        0.013986499980092049,
        0.2802110016345978
      ],
      "type": "VEC3",
      "bufferView": 0,
      "byteOffset": 4320
    },
    {
      "name": "Mesh2 Group1 Model_1_1_normals",
      "componentType": 5126,
      "count": 58,
      "min": [
        0,
        -1,
        0
      ],
      "max": [
        0,
        -1,
        0
      ],
      "type": "VEC3",
      "bufferView": 1,
      "byteOffset": 4320
    },
    {
      "name": "Mesh2 Group1 Model_1_1_texcoords",
      "componentType": 5126,
      "count": 58,
      "min": [
        0.7122899889945984,
        3.3013501167297363
      ],
      "max": [
        0.9164310097694397,
        3.5054900646209717
      ],
      "type": "VEC2",
      "bufferView": 2,
      "byteOffset": 2880
    },
    {
      "name": "Mesh2 Group1 Model_1_1_indices",
      "componentType": 5123,
      "count": 144,
      "min": [
        0
      ],
      "max": [
        57
      ],
      "type": "SCALAR",
      "bufferView": 3,
      "byteOffset": 1416
    },
    {
      "name": "Mesh2 Group1 Model_1_2_positions",
      "componentType": 5126,
      "count": 24,
      "min": [
        -0.17235800623893738,
        10.007399559020996,
        -0.16648699343204498
      ],
      "max": [
        0.17723099887371063,
        10.007399559020996,
        0.18310299515724182
      ],
      "type": "VEC3",
      "bufferView": 0,
      "byteOffset": 5016
    },
    {
      "name": "Mesh2 Group1 Model_1_2_normals",
      "componentType": 5126,
      "count": 24,
      "min": [
        0,
        -1,
        0
      ],
      "max": [
        0,
        -1,
        0
      ],
      "type": "VEC3",
      "bufferView": 1,
      "byteOffset": 5016
    },
    {
      "name": "Mesh2 Group1 Model_1_2_texcoords",
      "componentType": 5126,
      "count": 24,
      "min": [
        -44.57120132446289,
        -16.58650016784668
      ],
      "max": [
        -30.807899475097656,
        -2.82315993309021
      ],
      "type": "VEC2",
      "bufferView": 2,
      "byteOffset": 3344
    },
    {
      "name": "Mesh2 Group1 Model_1_2_indices",
      "componentType": 5123,
      "count": 66,
      "min": [
        0
      ],
      "max": [
        23
      ],
      "type": "SCALAR",
      "bufferView": 3,
      "byteOffset": 1704
    },
    {
      "name": "Mesh3 Group1 Model_1_0_positions",
      "componentType": 5126,
      "count": 121,
      "min": [
        -0.9548779726028442,
        9.09883975982666,
        -0.1155880019068718
      ],
      "max": [
        7.045119762420654,
        9.338820457458496,
        0.12439200282096863
      ],
      "type": "VEC3",
      "bufferView": 0,
      "byteOffset": 5304
    },
    {
      "name": "Mesh3 Group1 Model_1_0_normals",
      "componentType": 5126,
      "count": 121,
      "min": [
        -1,
        -0.9999176263809204,
        -0.9999176263809204
      ],
      "max": [
        1,
        0.9999176263809204,
        0.9999176263809204
      ],
      "type": "VEC3",
      "bufferView": 1,
      "byteOffset": 5304
    },
    {
      "name": "Mesh3 Group1 Model_1_0_texcoords",
      "componentType": 5126,
      "count": 121,
      "min": [
        -0.21390700340270996,
        -14.319600105285645
      ],
      "max": [
        1.2368500232696533,
        1
      ],
      "type": "VEC2",
      "bufferView": 2,
      "byteOffset": 3536
    },
    {
      "name": "Mesh3 Group1 Model_1_0_indices",
      "componentType": 5123,
      "count": 276,
      "min": [
        0
      ],
      "max": [
        120
      ],
      "type": "SCALAR",
      "bufferView": 3,
      "byteOffset": 1836
    },
    {
      "name": "Mesh4 Group1 Model_1_0_positions",
      "componentType": 5126,
      "count": 83,
      "min": [
        2.440920114517212,
        8.328470230102539,
        -0.07684499770402908
      ],
      "max": [
        2.6008799076080322,
        9.198470115661621,
        0.08310790359973907
      ],
      "type": "VEC3",
      "bufferView": 0,
      "byteOffset": 6756
    },
    {
      "name": "Mesh4 Group1 Model_1_0_normals",
      "componentType": 5126,
      "count": 83,
      "min": [
        -0.9997059106826782,
        -1,
        -0.9997059106826782
      ],
      "max": [
        0.9997059106826782,
        0,
        0.9997059106826782
      ],
      "type": "VEC3",
      "bufferView": 1,
      "byteOffset": 6756
    },
    {
      "name": "Mesh4 Group1 Model_1_0_texcoords",
      "componentType": 5126,
      "count": 83,
      "min": [
        -4.2665300369262695,
        -0.4271700084209442
      ],
      "max": [
        0.8245649933815002,
        1.1042619943618774
      ],
      "type": "VEC2",
      "bufferView": 2,
      "byteOffset": 4504
    },
    {
      "name": "Mesh4 Group1 Model_1_0_indices",
      "componentType": 5123,
      "count": 210,
      "min": [
        0
      ],
      "max": [
        82
      ],
      "type": "SCALAR",
      "bufferView": 3,
      "byteOffset": 2388
    },
    {
      "name": "Mesh4 Group1 Model_1_1_positions",
      "componentType": 5126,
      "count": 24,
      "min": [
        2.440920114517212,
        9.198470115661621,
        -0.07684499770402908
      ],
      "max": [
        2.6008799076080322,
        9.198470115661621,
        0.08310790359973907
      ],
      "type": "VEC3",
      "bufferView": 0,
      "byteOffset": 7752
    },
    {
      "name": "Mesh4 Group1 Model_1_1_normals",
      "componentType": 5126,
      "count": 24,
      "min": [
        0,
        1,
        0
      ],
      "max": [
        0,
        1,
        0
      ],
      "type": "VEC3",
      "bufferView": 1,
      "byteOffset": 7752
    },
    {
      "name": "Mesh4 Group1 Model_1_1_texcoords",
      "componentType": 5126,
      "count": 24,
      "min": [
        133.6929931640625,
        -13.057299613952637
      ],
      "max": [
        139.99000549316406,
        -6.759960174560547
      ],
      "type": "VEC2",
      "bufferView": 2,
      "byteOffset": 5168
    },
    {
      "name": "Mesh4 Group1 Model_1_1_indices",
      "componentType": 5123,
      "count": 66,
      "min": [
        0
      ],
      "max": [
        23
      ],
      "type": "SCALAR",
      "bufferView": 3,
      "byteOffset": 2808
    },
    {
      "name": "Mesh5 Group1 Model_1_0_positions",
      "componentType": 5126,
      "count": 83,
      "min": [
        5.4458699226379395,
        8.365400314331055,
        -0.07700809836387634
      ],
      "max": [
        5.605830192565918,
        9.235400199890137,
        0.08294480293989182
      ],
      "type": "VEC3",
      "bufferView": 0,
      "byteOffset": 8040
    },
    {
      "name": "Mesh5 Group1 Model_1_0_normals",
      "componentType": 5126,
      "count": 83,
      "min": [
        -0.9997059106826782,
        -1,
        -0.9997059106826782
      ],
      "max": [
        0.9997059106826782,
        0,
        0.9997059106826782
      ],
      "type": "VEC3",
      "bufferView": 1,
      "byteOffset": 8040
    },
    {
      "name": "Mesh5 Group1 Model_1_0_texcoords",
      "componentType": 5126,
      "count": 83,
      "min": [
        -4.2665300369262695,
        -0.4271700084209442
      ],
      "max": [
        0.8245649933815002,
        1.1042619943618774
      ],
      "type": "VEC2",
      "bufferView": 2,
      "byteOffset": 5360
    },
    {
      "name": "Mesh5 Group1 Model_1_0_indices",
      "componentType": 5123,
      "count": 210,
      "min": [
        0
      ],
      "max": [
        82
      ],
      "type": "SCALAR",
      "bufferView": 3,
      "byteOffset": 2940
    },
    {
      "name": "Mesh5 Group1 Model_1_1_positions",
      "componentType": 5126,
      "count": 24,
      "min": [
        5.4458699226379395,
        9.235400199890137,
        -0.07700809836387634
      ],
      "max": [
        5.605830192565918,
        9.235400199890137,
        0.08294480293989182
      ],
      "type": "VEC3",
      "bufferView": 0,
      "byteOffset": 9036
    },
    {
      "name": "Mesh5 Group1 Model_1_1_normals",
      "componentType": 5126,
      "count": 24,
      "min": [
        0,
        1,
        0
      ],
      "max": [
        0,
        1,
        0
      ],
      "type": "VEC3",
      "bufferView": 1,
      "byteOffset": 9036
    },
    {
      "name": "Mesh5 Group1 Model_1_1_texcoords",
      "componentType": 5126,
      "count": 24,
      "min": [
        251.9980010986328,
        -13.063699722290039
      ],
      "max": [
        258.2950134277344,
        -6.7663798332214355
      ],
      "type": "VEC2",
      "bufferView": 2,
      "byteOffset": 6024
    },
    {
      "name": "Mesh5 Group1 Model_1_1_indices",
      "componentType": 5123,
      "count": 66,
      "min": [
        0
      ],
      "max": [
        23
      ],
      "type": "SCALAR",
      "bufferView": 3,
      "byteOffset": 3360
    }
  ],
  "asset": {
    "generator": "obj2gltf",
    "version": "2.0"
  },
  "buffers": [
    {
      "name": "road_sigin",
      "byteLength": 40596,
      "uri": "data:application/octet-stream;base64,"
    }
  ],
  "bufferViews": [
    {
      "name": "bufferView_0",
      "buffer": 0,
      "byteLength": 9324,
      "byteOffset": 0,
      "byteStride": 12,
      "target": 34962
    },
    {
      "name": "bufferView_1",
      "buffer": 0,
      "byteLength": 9324,
      "byteOffset": 9324,
      "byteStride": 12,
      "target": 34962
    },
    {
      "name": "bufferView_2",
      "buffer": 0,
      "byteLength": 6216,
      "byteOffset": 18648,
      "byteStride": 8,
      "target": 34962
    },
    {
      "name": "bufferView_3",
      "buffer": 0,
      "byteLength": 3492,
      "byteOffset": 24864,
      "target": 34963
    },
    {
      "buffer": 0,
      "byteOffset": 28356,
      "byteLength": 7763
    },
    {
      "buffer": 0,
      "byteOffset": 36119,
      "byteLength": 4474
    }
  ],
  "images": [
    {
      "name": "Metal_Steel_Textured",
      "mimeType": "image/jpeg",
      "bufferView": 4
    },
    {
      "name": "Metal_Aluminum_Anodized",
      "mimeType": "image/jpeg",
      "bufferView": 5
    }
  ],
  "materials": [
    {
      "name": "Metal_Steel_Textured",
      "pbrMetallicRoughness": {
        "baseColorTexture": {
          "index": 0
        },
        "baseColorFactor": [
          1,
          1,
          1,
          1
        ],
        "metallicFactor": 0,
        "roughnessFactor": 1
      },
      "emissiveFactor": [
        0,
        0,
        0
      ],
      "alphaMode": "OPAQUE",
      "doubleSided": false
    },
    {
      "name": "Metal_Aluminum_Anodized",
      "pbrMetallicRoughness": {
        "baseColorTexture": {
          "index": 1
        },
        "baseColorFactor": [
          1,
          1,
          1,
          1
        ],
        "metallicFactor": 0,
        "roughnessFactor": 1
      },
      "emissiveFactor": [
        0,
        0,
        0
      ],
      "alphaMode": "OPAQUE",
      "doubleSided": false
    },
    {
      "name": "FrontColor",
      "pbrMetallicRoughness": {
        "baseColorFactor": [
          1,
          1,
          1,
          1
        ],
        "metallicFactor": 0,
        "roughnessFactor": 1
      },
      "emissiveFactor": [
        0,
        0,
        0
      ],
      "alphaMode": "OPAQUE",
      "doubleSided": false
    }
  ],
  "meshes": [
    {
      "name": "Mesh1 Group1 Model_1",
      "primitives": [
        {
          "attributes": {
            "POSITION": 0,
            "NORMAL": 1,
            "TEXCOORD_0": 2
          },
          "indices": 3,
          "material": 0,
          "mode": 4
        }
      ]
    },
    {
      "name": "Mesh2 Group1 Model_1",
      "primitives": [
        {
          "attributes": {
            "POSITION": 4,
            "NORMAL": 5,
            "TEXCOORD_0": 6
          },
          "indices": 7,
          "material": 0,
          "mode": 4
        },
        {
          "attributes": {
            "POSITION": 8,
            "NORMAL": 9,
            "TEXCOORD_0": 10
          },
          "indices": 11,
          "material": 1,
          "mode": 4
        },
        {
          "attributes": {
            "POSITION": 12,
            "NORMAL": 13,
            "TEXCOORD_0": 14
          },
          "indices": 15,
          "material": 2,
          "mode": 4
        }
      ]
    },
    {
      "name": "Mesh3 Group1 Model_1",
      "primitives": [
        {
          "attributes": {
            "POSITION": 16,
            "NORMAL": 17,
            "TEXCOORD_0": 18
          },
          "indices": 19,
          "material": 0,
          "mode": 4
        }
      ]
    },
    {
      "name": "Mesh4 Group1 Model_1",
      "primitives": [
        {
          "attributes": {
            "POSITION": 20,
            "NORMAL": 21,
            "TEXCOORD_0": 22
          },
          "indices": 23,
          "material": 0,
          "mode": 4
        },
        {
          "attributes": {
            "POSITION": 24,
            "NORMAL": 25,
            "TEXCOORD_0": 26
          },
          "indices": 27,
          "material": 2,
          "mode": 4
        }
      ]
    },
    {
      "name": "Mesh5 Group1 Model_1",
      "primitives": [
        {
          "attributes": {
            "POSITION": 28,
            "NORMAL": 29,
            "TEXCOORD_0": 30
          },
          "indices": 31,
          "material": 0,
          "mode": 4
        },
        {
          "attributes": {
            "POSITION": 32,
            "NORMAL": 33,
            "TEXCOORD_0": 34
          },
          "indices": 35,
          "material": 2,
          "mode": 4
        }
      ]
    }
  ],
  "nodes": [
    {
      "name": "Mesh1 Group1 Model",
      "mesh": 0
    },
    {
      "name": "Mesh2 Group1 Model",
      "mesh": 1
    },
    {
      "name": "Mesh3 Group1 Model",
      "mesh": 2
    },
    {
      "name": "Mesh4 Group1 Model",
      "mesh": 3
    },
    {
      "name": "Mesh5 Group1 Model",
      "mesh": 4
    }
  ],
  "samplers": [
    {
      "magFilter": 9729,
      "minFilter": 9986,
      "wrapS": 10497,
      "wrapT": 10497
    }
  ],
  "scene": 0,
  "scenes": [
    {
      "nodes": [
        0,
        1,
        2,
        3,
        4
      ]
    }
  ],
  "textures": [
    {
      "name": "Metal_Steel_Textured",
      "sampler": 0,
      "source": 0
    },
    {
      "name": "Metal_Aluminum_Anodized",
      "sampler": 0,
      "source": 1
    }
  ]
}
