{
  "accessors": [
    {
      "name": "model16_1_0_positions",
      "componentType": 5126,
      "count": 140,
      "min": [
        -0.01979999989271164,
        -0.5938000082969666,
        -0.5938000082969666
      ],
      "max": [
        0.01979999989271164,
        0.5938000082969666,
        0.5938000082969666
      ],
      "type": "VEC3",
      "bufferView": 0,
      "byteOffset": 0
    },
    {
      "name": "model16_1_0_normals",
      "componentType": 5126,
      "count": 140,
      "min": [
        -0.7311816215515137,
        -0.7311816215515137,
        -0.6833890676498413
      ],
      "max": [
        0.7311816215515137,
        0.7311816215515137,
        0.6833890676498413
      ],
      "type": "VEC3",
      "bufferView": 1,
      "byteOffset": 0
    },
    {
      "name": "model16_1_0_texcoords",
      "componentType": 5126,
      "count": 140,
      "min": [
        0.03220000118017197,
        0.07400000095367432
      ],
      "max": [
        0.954800009727478,
        0.9032999873161316
      ],
      "type": "VEC2",
      "bufferView": 2,
      "byteOffset": 0
    },
    {
      "name": "model16_1_0_indices",
      "componentType": 5123,
      "count": 246,
      "min": [
        0
      ],
      "max": [
        139
      ],
      "type": "SCALAR",
      "bufferView": 3,
      "byteOffset": 0
    },
    {
      "name": "model16_1_1_positions",
      "componentType": 5126,
      "count": 28,
      "min": [
        -0.01979999989271164,
        -0.5938000082969666,
        -0.5938000082969666
      ],
      "max": [
        -0.003599999938160181,
        0.5938000082969666,
        0.5934000015258789
      ],
      "type": "VEC3",
      "bufferView": 0,
      "byteOffset": 1680
    },
    {
      "name": "model16_1_1_normals",
      "componentType": 5126,
      "count": 28,
      "min": [
        -0.71196448802948,
        -0.7119763493537903,
        -0.6833357214927673
      ],
      "max": [
        0.7311816215515137,
        0.7311816215515137,
        -0.6821828484535217
      ],
      "type": "VEC3",
      "bufferView": 1,
      "byteOffset": 1680
    },
    {
      "name": "model16_1_1_texcoords",
      "componentType": 5126,
      "count": 28,
      "min": [
        0.02280000038444996,
        0.08299999684095383
      ],
      "max": [
        0.9441999793052673,
        0.911300003528595
      ],
      "type": "VEC2",
      "bufferView": 2,
      "byteOffset": 1120
    },
    {
      "name": "model16_1_1_indices",
      "componentType": 5123,
      "count": 78,
      "min": [
        0
      ],
      "max": [
        27
      ],
      "type": "SCALAR",
      "bufferView": 3,
      "byteOffset": 492
    }
  ],
  "asset": {
    "generator": "obj2gltf",
    "version": "2.0"
  },
  "buffers": [
    {
      "name": "model16",
      "byteLength": 108336,
      "uri": "data:application/octet-stream;base64,"
    }
  ],
  "bufferViews": [
    {
      "name": "bufferView_0",
      "buffer": 0,
      "byteLength": 2016,
      "byteOffset": 0,
      "byteStride": 12,
      "target": 34962
    },
    {
      "name": "bufferView_1",
      "buffer": 0,
      "byteLength": 2016,
      "byteOffset": 2016,
      "byteStride": 12,
      "target": 34962
    },
    {
      "name": "bufferView_2",
      "buffer": 0,
      "byteLength": 1344,
      "byteOffset": 4032,
      "byteStride": 8,
      "target": 34962
    },
    {
      "name": "bufferView_3",
      "buffer": 0,
      "byteLength": 648,
      "byteOffset": 5376,
      "target": 34963
    },
    {
      "buffer": 0,
      "byteOffset": 6024,
      "byteLength": 76426
    },
    {
      "buffer": 0,
      "byteOffset": 82450,
      "byteLength": 25884
    }
  ],
  "images": [
    {
      "name": "lp07",
      "mimeType": "image/jpeg",
      "bufferView": 4
    },
    {
      "name": "beijing",
      "mimeType": "image/jpeg",
      "bufferView": 5
    }
  ],
  "materials": [
    {
      "name": "05___Default",
      "pbrMetallicRoughness": {
        "baseColorTexture": {
          "index": 0
        },
        "baseColorFactor": [
          1,
          1,
          1,
          1
        ],
        "metallicFactor": 0,
        "roughnessFactor": 0.99
      },
      "emissiveFactor": [
        0,
        0,
        0
      ],
      "alphaMode": "OPAQUE",
      "doubleSided": false
    },
    {
      "name": "07___Default",
      "pbrMetallicRoughness": {
        "baseColorTexture": {
          "index": 1
        },
        "baseColorFactor": [
          1,
          1,
          1,
          1
        ],
        "metallicFactor": 0,
        "roughnessFactor": 0.99
      },
      "emissiveFactor": [
        0,
        0,
        0
      ],
      "alphaMode": "OPAQUE",
      "doubleSided": false
    }
  ],
  "meshes": [
    {
      "name": "model16_1",
      "primitives": [
        {
          "attributes": {
            "POSITION": 0,
            "NORMAL": 1,
            "TEXCOORD_0": 2
          },
          "indices": 3,
          "material": 0,
          "mode": 4
        },
        {
          "attributes": {
            "POSITION": 4,
            "NORMAL": 5,
            "TEXCOORD_0": 6
          },
          "indices": 7,
          "material": 1,
          "mode": 4
        }
      ]
    }
  ],
  "nodes": [
    {
      "name": "model16",
      "mesh": 0
    }
  ],
  "samplers": [
    {
      "magFilter": 9729,
      "minFilter": 9986,
      "wrapS": 10497,
      "wrapT": 10497
    }
  ],
  "scene": 0,
  "scenes": [
    {
      "nodes": [
        0
      ]
    }
  ],
  "textures": [
    {
      "name": "lp07",
      "sampler": 0,
      "source": 0
    },
    {
      "name": "beijing",
      "sampler": 0,
      "source": 1
    }
  ]
}
