{
  "accessors": [
    {
      "name": "model12_1_0_positions",
      "componentType": 5126,
      "count": 201,
      "min": [
        -5.941299915313721,
        3.0666000843048096,
        30.62929916381836
      ],
      "max": [
        -5.91949987411499,
        4.119900226593018,
        31.75279998779297
      ],
      "type": "VEC3",
      "bufferView": 0,
      "byteOffset": 0
    },
    {
      "name": "model12_1_0_normals",
      "componentType": 5126,
      "count": 201,
      "min": [
        -1,
        -0.8662831783294678,
        -0.8662831783294678
      ],
      "max": [
        0.992559015750885,
        0.8662831783294678,
        0.8662831783294678
      ],
      "type": "VEC3",
      "bufferView": 1,
      "byteOffset": 0
    },
    {
      "name": "model12_1_0_texcoords",
      "componentType": 5126,
      "count": 201,
      "min": [
        -35.107601165771484,
        0.0005000000237487257
      ],
      "max": [
        35.107601165771484,
        0.9994999766349792
      ],
      "type": "VEC2",
      "bufferView": 2,
      "byteOffset": 0
    },
    {
      "name": "model12_1_0_indices",
      "componentType": 5123,
      "count": 312,
      "min": [
        0
      ],
      "max": [
        200
      ],
      "type": "SCALAR",
      "bufferView": 3,
      "byteOffset": 0
    },
    {
      "name": "model12_1_1_positions",
      "componentType": 5126,
      "count": 24,
      "min": [
        -5.931300163269043,
        3.085599899291992,
        30.649499893188477
      ],
      "max": [
        -5.931300163269043,
        4.10099983215332,
        31.73259925842285
      ],
      "type": "VEC3",
      "bufferView": 0,
      "byteOffset": 2412
    },
    {
      "name": "model12_1_1_normals",
      "componentType": 5126,
      "count": 24,
      "min": [
        0.7942895293235779,
        -0.5612925887107849,
        -0.5612925887107849
      ],
      "max": [
        1,
        0.5612925887107849,
        0.5612925887107849
      ],
      "type": "VEC3",
      "bufferView": 1,
      "byteOffset": 2412
    },
    {
      "name": "model12_1_1_texcoords",
      "componentType": 5126,
      "count": 24,
      "min": [
        -33.846099853515625,
        0.9426000118255615
      ],
      "max": [
        33.846099853515625,
        0.9426000118255615
      ],
      "type": "VEC2",
      "bufferView": 2,
      "byteOffset": 1608
    },
    {
      "name": "model12_1_1_indices",
      "componentType": 5123,
      "count": 24,
      "min": [
        0
      ],
      "max": [
        23
      ],
      "type": "SCALAR",
      "bufferView": 3,
      "byteOffset": 624
    }
  ],
  "asset": {
    "generator": "obj2gltf",
    "version": "2.0"
  },
  "buffers": [
    {
      "name": "model12",
      "byteLength": 109212,
      "uri": "data:application/octet-stream;base64,"
    }
  ],
  "bufferViews": [
    {
      "name": "bufferView_0",
      "buffer": 0,
      "byteLength": 2700,
      "byteOffset": 0,
      "byteStride": 12,
      "target": 34962
    },
    {
      "name": "bufferView_1",
      "buffer": 0,
      "byteLength": 2700,
      "byteOffset": 2700,
      "byteStride": 12,
      "target": 34962
    },
    {
      "name": "bufferView_2",
      "buffer": 0,
      "byteLength": 1800,
      "byteOffset": 5400,
      "byteStride": 8,
      "target": 34962
    },
    {
      "name": "bufferView_3",
      "buffer": 0,
      "byteLength": 672,
      "byteOffset": 7200,
      "target": 34963
    },
    {
      "buffer": 0,
      "byteOffset": 7872,
      "byteLength": 75454
    },
    {
      "buffer": 0,
      "byteOffset": 83326,
      "byteLength": 25884
    }
  ],
  "images": [
    {
      "name": "stop",
      "mimeType": "image/jpeg",
      "bufferView": 4
    },
    {
      "name": "beijing",
      "mimeType": "image/jpeg",
      "bufferView": 5
    }
  ],
  "materials": [
    {
      "name": "wire_154154229",
      "pbrMetallicRoughness": {
        "baseColorTexture": {
          "index": 0
        },
        "baseColorFactor": [
          1,
          1,
          1,
          1
        ],
        "metallicFactor": 0,
        "roughnessFactor": 0.968
      },
      "emissiveFactor": [
        0,
        0,
        0
      ],
      "alphaMode": "OPAQUE",
      "doubleSided": false
    },
    {
      "name": "02___Default",
      "pbrMetallicRoughness": {
        "baseColorTexture": {
          "index": 1
        },
        "baseColorFactor": [
          1,
          1,
          1,
          1
        ],
        "metallicFactor": 0,
        "roughnessFactor": 0.99
      },
      "emissiveFactor": [
        0,
        0,
        0
      ],
      "alphaMode": "OPAQUE",
      "doubleSided": false
    }
  ],
  "meshes": [
    {
      "name": "model12_1",
      "primitives": [
        {
          "attributes": {
            "POSITION": 0,
            "NORMAL": 1,
            "TEXCOORD_0": 2
          },
          "indices": 3,
          "material": 0,
          "mode": 4
        },
        {
          "attributes": {
            "POSITION": 4,
            "NORMAL": 5,
            "TEXCOORD_0": 6
          },
          "indices": 7,
          "material": 1,
          "mode": 4
        }
      ]
    }
  ],
  "nodes": [
    {
      "name": "model12",
      "mesh": 0
    }
  ],
  "samplers": [
    {
      "magFilter": 9729,
      "minFilter": 9986,
      "wrapS": 10497,
      "wrapT": 10497
    }
  ],
  "scene": 0,
  "scenes": [
    {
      "nodes": [
        0
      ]
    }
  ],
  "textures": [
    {
      "name": "stop",
      "sampler": 0,
      "source": 0
    },
    {
      "name": "beijing",
      "sampler": 0,
      "source": 1
    }
  ]
}
