{
  "accessors": [
    {
      "name": "model02_1_0_positions",
      "componentType": 5126,
      "count": 28,
      "min": [
        -0.008100000210106373,
        -0.5935999751091003,
        -0.5935999751091003
      ],
      "max": [
        0.008100000210106373,
        0.5938000082969666,
        0.5938000082969666
      ],
      "type": "VEC3",
      "bufferView": 0,
      "byteOffset": 0
    },
    {
      "name": "model02_1_0_normals",
      "componentType": 5126,
      "count": 28,
      "min": [
        -0.7311816215515137,
        -0.7311816215515137,
        0.6821828484535217
      ],
      "max": [
        0.7311816215515137,
        0.7119269967079163,
        0.6833890676498413
      ],
      "type": "VEC3",
      "bufferView": 1,
      "byteOffset": 0
    },
    {
      "name": "model02_1_0_texcoords",
      "componentType": 5126,
      "count": 28,
      "min": [
        0.018400000408291817,
        0.006800000090152025
      ],
      "max": [
        0.994700014591217,
        0.9736999869346619
      ],
      "type": "VEC2",
      "bufferView": 2,
      "byteOffset": 0
    },
    {
      "name": "model02_1_0_indices",
      "componentType": 5123,
      "count": 78,
      "min": [
        0
      ],
      "max": [
        27
      ],
      "type": "SCALAR",
      "bufferView": 3,
      "byteOffset": 0
    },
    {
      "name": "model02_1_1_positions",
      "componentType": 5126,
      "count": 28,
      "min": [
        -0.01979999989271164,
        -0.5938000082969666,
        -0.5863999724388123
      ],
      "max": [
        -0.003599999938160181,
        0.5938000082969666,
        0.6007999777793884
      ],
      "type": "VEC3",
      "bufferView": 0,
      "byteOffset": 336
    },
    {
      "name": "model02_1_1_normals",
      "componentType": 5126,
      "count": 28,
      "min": [
        -0.7311816215515137,
        -0.7119763493537903,
        -0.6833357214927673
      ],
      "max": [
        0.7311816215515137,
        0.7311816215515137,
        -0.6821828484535217
      ],
      "type": "VEC3",
      "bufferView": 1,
      "byteOffset": 336
    },
    {
      "name": "model02_1_1_texcoords",
      "componentType": 5126,
      "count": 28,
      "min": [
        0.02810000069439411,
        -0.014600000344216824
      ],
      "max": [
        1.0161000490188599,
        0.9635000228881836
      ],
      "type": "VEC2",
      "bufferView": 2,
      "byteOffset": 224
    },
    {
      "name": "model02_1_1_indices",
      "componentType": 5123,
      "count": 78,
      "min": [
        0
      ],
      "max": [
        27
      ],
      "type": "SCALAR",
      "bufferView": 3,
      "byteOffset": 156
    },
    {
      "name": "model02_1_2_positions",
      "componentType": 5126,
      "count": 112,
      "min": [
        -0.01979999989271164,
        -0.5938000082969666,
        -0.5935999751091003
      ],
      "max": [
        0.008100000210106373,
        0.5938000082969666,
        0.6007999777793884
      ],
      "type": "VEC3",
      "bufferView": 0,
      "byteOffset": 672
    },
    {
      "name": "model02_1_2_normals",
      "componentType": 5126,
      "count": 112,
      "min": [
        -0.7311816215515137,
        -0.7311816215515137,
        -0.6833890676498413
      ],
      "max": [
        0.7311816215515137,
        0.7311816215515137,
        -0.6821828484535217
      ],
      "type": "VEC3",
      "bufferView": 1,
      "byteOffset": 672
    },
    {
      "name": "model02_1_2_texcoords",
      "componentType": 5126,
      "count": 112,
      "min": [
        0.3084999918937683,
        0.2630000114440918
      ],
      "max": [
        0.7355999946594238,
        0.6858000159263611
      ],
      "type": "VEC2",
      "bufferView": 2,
      "byteOffset": 448
    },
    {
      "name": "model02_1_2_indices",
      "componentType": 5123,
      "count": 168,
      "min": [
        0
      ],
      "max": [
        111
      ],
      "type": "SCALAR",
      "bufferView": 3,
      "byteOffset": 312
    }
  ],
  "asset": {
    "generator": "obj2gltf",
    "version": "2.0"
  },
  "buffers": [
    {
      "name": "model23",
      "byteLength": 100412,
      "uri": "data:application/octet-stream;base64,"
    }
  ],
  "bufferViews": [
    {
      "name": "bufferView_0",
      "buffer": 0,
      "byteLength": 2016,
      "byteOffset": 0,
      "byteStride": 12,
      "target": 34962
    },
    {
      "name": "bufferView_1",
      "buffer": 0,
      "byteLength": 2016,
      "byteOffset": 2016,
      "byteStride": 12,
      "target": 34962
    },
    {
      "name": "bufferView_2",
      "buffer": 0,
      "byteLength": 1344,
      "byteOffset": 4032,
      "byteStride": 8,
      "target": 34962
    },
    {
      "name": "bufferView_3",
      "buffer": 0,
      "byteLength": 648,
      "byteOffset": 5376,
      "target": 34963
    },
    {
      "buffer": 0,
      "byteOffset": 6024,
      "byteLength": 68504
    },
    {
      "buffer": 0,
      "byteOffset": 74528,
      "byteLength": 25884
    }
  ],
  "images": [
    {
      "name": "stop08",
      "mimeType": "image/jpeg",
      "bufferView": 4
    },
    {
      "name": "beijing",
      "mimeType": "image/jpeg",
      "bufferView": 5
    }
  ],
  "materials": [
    {
      "name": "03___Default",
      "pbrMetallicRoughness": {
        "baseColorTexture": {
          "index": 0
        },
        "baseColorFactor": [
          1,
          1,
          1,
          1
        ],
        "metallicFactor": 0,
        "roughnessFactor": 0.99
      },
      "emissiveFactor": [
        0,
        0,
        0
      ],
      "alphaMode": "OPAQUE",
      "doubleSided": false
    },
    {
      "name": "02___Default",
      "pbrMetallicRoughness": {
        "baseColorTexture": {
          "index": 1
        },
        "baseColorFactor": [
          1,
          1,
          1,
          1
        ],
        "metallicFactor": 0,
        "roughnessFactor": 0.99
      },
      "emissiveFactor": [
        0,
        0,
        0
      ],
      "alphaMode": "OPAQUE",
      "doubleSided": false
    },
    {
      "name": "04___Default",
      "pbrMetallicRoughness": {
        "baseColorFactor": [
          0.588,
          0.588,
          0.588,
          1
        ],
        "metallicFactor": 0,
        "roughnessFactor": 0.99
      },
      "emissiveFactor": [
        0,
        0,
        0
      ],
      "alphaMode": "OPAQUE",
      "doubleSided": false
    }
  ],
  "meshes": [
    {
      "name": "model02_1",
      "primitives": [
        {
          "attributes": {
            "POSITION": 0,
            "NORMAL": 1,
            "TEXCOORD_0": 2
          },
          "indices": 3,
          "material": 0,
          "mode": 4
        },
        {
          "attributes": {
            "POSITION": 4,
            "NORMAL": 5,
            "TEXCOORD_0": 6
          },
          "indices": 7,
          "material": 1,
          "mode": 4
        },
        {
          "attributes": {
            "POSITION": 8,
            "NORMAL": 9,
            "TEXCOORD_0": 10
          },
          "indices": 11,
          "material": 2,
          "mode": 4
        }
      ]
    }
  ],
  "nodes": [
    {
      "name": "model02",
      "mesh": 0
    }
  ],
  "samplers": [
    {
      "magFilter": 9729,
      "minFilter": 9986,
      "wrapS": 10497,
      "wrapT": 10497
    }
  ],
  "scene": 0,
  "scenes": [
    {
      "nodes": [
        0
      ]
    }
  ],
  "textures": [
    {
      "name": "stop08",
      "sampler": 0,
      "source": 0
    },
    {
      "name": "beijing",
      "sampler": 0,
      "source": 1
    }
  ]
}
