{
  "accessors": [
    {
      "name": "model25_1_0_positions",
      "componentType": 5126,
      "count": 40,
      "min": [
        -0.13819999992847443,
        -2.700000047683716,
        -0.14079999923706055
      ],
      "max": [
        0.13760000467300415,
        4.049900054931641,
        0.13359999656677246
      ],
      "type": "VEC3",
      "bufferView": 0,
      "byteOffset": 0
    },
    {
      "name": "model25_1_0_normals",
      "componentType": 5126,
      "count": 40,
      "min": [
        -0.9999810457229614,
        -0.634325385093689,
        -0.9998385906219482
      ],
      "max": [
        0.9999693632125854,
        -0.0033999544102698565,
        0.9999865889549255
      ],
      "type": "VEC3",
      "bufferView": 1,
      "byteOffset": 0
    },
    {
      "name": "model25_1_0_texcoords",
      "componentType": 5126,
      "count": 40,
      "min": [
        -1.1956000328063965,
        -0.1071000024676323
      ],
      "max": [
        0.1703999936580658,
        0.9341999888420105
      ],
      "type": "VEC2",
      "bufferView": 2,
      "byteOffset": 0
    },
    {
      "name": "model25_1_0_indices",
      "componentType": 5123,
      "count": 66,
      "min": [
        0
      ],
      "max": [
        39
      ],
      "type": "SCALAR",
      "bufferView": 3,
      "byteOffset": 0
    }
  ],
  "asset": {
    "generator": "obj2gltf",
    "version": "2.0"
  },
  "buffers": [
    {
      "name": "model26",
      "byteLength": 49484,
      "uri": "data:application/octet-stream;base64,"
    }
  ],
  "bufferViews": [
    {
      "name": "bufferView_0",
      "buffer": 0,
      "byteLength": 480,
      "byteOffset": 0,
      "byteStride": 12,
      "target": 34962
    },
    {
      "name": "bufferView_1",
      "buffer": 0,
      "byteLength": 480,
      "byteOffset": 480,
      "byteStride": 12,
      "target": 34962
    },
    {
      "name": "bufferView_2",
      "buffer": 0,
      "byteLength": 320,
      "byteOffset": 960,
      "byteStride": 8,
      "target": 34962
    },
    {
      "name": "bufferView_3",
      "buffer": 0,
      "byteLength": 132,
      "byteOffset": 1280,
      "target": 34963
    },
    {
      "buffer": 0,
      "byteOffset": 1412,
      "byteLength": 48070
    }
  ],
  "images": [
    {
      "name": "add1",
      "mimeType": "image/jpeg",
      "bufferView": 4
    }
  ],
  "materials": [
    {
      "name": "04___Default",
      "pbrMetallicRoughness": {
        "baseColorTexture": {
          "index": 0
        },
        "baseColorFactor": [
          1,
          1,
          1,
          1
        ],
        "metallicFactor": 0,
        "roughnessFactor": 0.99
      },
      "emissiveFactor": [
        0,
        0,
        0
      ],
      "alphaMode": "OPAQUE",
      "doubleSided": false
    }
  ],
  "meshes": [
    {
      "name": "model25_1",
      "primitives": [
        {
          "attributes": {
            "POSITION": 0,
            "NORMAL": 1,
            "TEXCOORD_0": 2
          },
          "indices": 3,
          "material": 0,
          "mode": 4
        }
      ]
    }
  ],
  "nodes": [
    {
      "name": "model25",
      "mesh": 0
    }
  ],
  "samplers": [
    {
      "magFilter": 9729,
      "minFilter": 9986,
      "wrapS": 10497,
      "wrapT": 10497
    }
  ],
  "scene": 0,
  "scenes": [
    {
      "nodes": [
        0
      ]
    }
  ],
  "textures": [
    {
      "name": "add1",
      "sampler": 0,
      "source": 0
    }
  ]
}
