{"accessors":[{"name":"model15_1_0_positions","componentType":5126,"count":138,"min":[-0.042100001126527786,-1.2312999963760376,-0.6753000020980835],"max":[0.0421999990940094,1.2311999797821045,0.6753000020980835],"type":"VEC3","bufferView":0,"byteOffset":0},{"name":"model15_1_0_normals","componentType":5126,"count":138,"min":[-0.9063642024993896,-0.8757214546203613,-0.8773998618125916],"max":[0.9063642024993896,0.8757214546203613,0.8773998618125916],"type":"VEC3","bufferView":1,"byteOffset":0},{"name":"model15_1_0_texcoords","componentType":5126,"count":138,"min":[0.0005000000237487257,0.0005000000237487257],"max":[0.0005000000237487257,0.0005000000237487257],"type":"VEC2","bufferView":2,"byteOffset":0},{"name":"model15_1_0_indices","componentType":5123,"count":222,"min":[0],"max":[137],"type":"SCALAR","bufferView":3,"byteOffset":0},{"name":"model15_1_1_positions","componentType":5126,"count":4,"min":[0.035599999129772186,-1.1928999423980713,-0.6439999938011169],"max":[0.0421999990940094,1.1928999423980713,0.6431999802589417],"type":"VEC3","bufferView":0,"byteOffset":1656},{"name":"model15_1_1_normals","componentType":5126,"count":4,"min":[0.9999801516532898,0,-0.00629987521097064],"max":[0.9999801516532898,0,-0.00629987521097064],"type":"VEC3","bufferView":1,"byteOffset":1656},{"name":"model15_1_1_texcoords","componentType":5126,"count":4,"min":[0.0005000000237487257,0.0005000000237487257],"max":[0.9994999766349792,0.9994999766349792],"type":"VEC2","bufferView":2,"byteOffset":1104},{"name":"model15_1_1_indices","componentType":5123,"count":6,"min":[0],"max":[3],"type":"SCALAR","bufferView":3,"byteOffset":444}],"asset":{"generator":"obj2gltf","version":"2.0"},"buffers":[{"name":"model15","byteLength":109584,"uri":"data:application/octet-stream;base64,"}],"bufferViews":[{"name":"bufferView_0","buffer":0,"byteLength":1704,"byteOffset":0,"byteStride":12,"target":34962},{"name":"bufferView_1","buffer":0,"byteLength":1704,"byteOffset":1704,"byteStride":12,"target":34962},{"name":"bufferView_2","buffer":0,"byteLength":1136,"byteOffset":3408,"byteStride":8,"target":34962},{"name":"bufferView_3","buffer":0,"byteLength":456,"byteOffset":4544,"target":34963},{"buffer":0,"byteOffset":5000,"byteLength":104583}],"images":[{"name":"LP06","mimeType":"image/jpeg","bufferView":4}],"materials":[{"name":"wire_154154229","pbrMetallicRoughness":{"baseColorFactor":[0.588,0.588,0.588,1],"metallicFactor":0,"roughnessFactor":0.99},"emissiveFactor":[0,0,0],"alphaMode":"OPAQUE","doubleSided":false},{"name":"04___Default","pbrMetallicRoughness":{"baseColorTexture":{"index":0},"baseColorFactor":[1,1,1,1],"metallicFactor":0,"roughnessFactor":0.99},"emissiveFactor":[0,0,0],"alphaMode":"OPAQUE","doubleSided":false}],"meshes":[{"name":"model15_1","primitives":[{"attributes":{"POSITION":0,"NORMAL":1,"TEXCOORD_0":2},"indices":3,"material":0,"mode":4},{"attributes":{"POSITION":4,"NORMAL":5,"TEXCOORD_0":6},"indices":7,"material":1,"mode":4}]}],"nodes":[{"name":"model15","mesh":0}],"samplers":[{"magFilter":9729,"minFilter":9986,"wrapS":10497,"wrapT":10497}],"scene":0,"scenes":[{"nodes":[0]}],"textures":[{"name":"LP06","sampler":0,"source":0}]}