{"accessors":[{"name":"model04_1_0_positions","componentType":5126,"count":28,"min":[0.003599999938160181,-0.5935999751091003,-0.5935999751091003],"max":[0.01979999989271164,0.5938000082969666,0.5938000082969666],"type":"VEC3","bufferView":0,"byteOffset":0},{"name":"model04_1_0_normals","componentType":5126,"count":28,"min":[-0.7119269967079163,-0.7311816215515137,0.6821828484535217],"max":[0.7311816215515137,0.7119269967079163,0.6833890676498413],"type":"VEC3","bufferView":1,"byteOffset":0},{"name":"model04_1_0_texcoords","componentType":5126,"count":28,"min":[0.032499998807907104,0.02669999934732914],"max":[0.9643999934196472,0.9587000012397766],"type":"VEC2","bufferView":2,"byteOffset":0},{"name":"model04_1_0_indices","componentType":5123,"count":78,"min":[0],"max":[27],"type":"SCALAR","bufferView":3,"byteOffset":0},{"name":"model04_1_1_positions","componentType":5126,"count":28,"min":[-0.01979999989271164,-0.5938000082969666,-0.5938000082969666],"max":[-0.003599999938160181,0.5938000082969666,0.5934000015258789],"type":"VEC3","bufferView":0,"byteOffset":336},{"name":"model04_1_1_normals","componentType":5126,"count":28,"min":[-0.71196448802948,-0.7119763493537903,-0.6833357214927673],"max":[0.7311816215515137,0.7311816215515137,-0.6821828484535217],"type":"VEC3","bufferView":1,"byteOffset":336},{"name":"model04_1_1_texcoords","componentType":5126,"count":28,"min":[0.023000000044703484,0.03689999878406525],"max":[0.9537000060081482,0.9677000045776367],"type":"VEC2","bufferView":2,"byteOffset":224},{"name":"model04_1_1_indices","componentType":5123,"count":78,"min":[0],"max":[27],"type":"SCALAR","bufferView":3,"byteOffset":156},{"name":"model04_1_2_positions","componentType":5126,"count":112,"min":[-0.01979999989271164,-0.5938000082969666,-0.5938000082969666],"max":[0.01979999989271164,0.5938000082969666,0.5938000082969666],"type":"VEC3","bufferView":0,"byteOffset":672},{"name":"model04_1_2_normals","componentType":5126,"count":112,"min":[-0.7311816215515137,-0.7311816215515137,-0.6833890676498413],"max":[0.7311816215515137,0.7311816215515137,-0.6821828484535217],"type":"VEC3","bufferView":1,"byteOffset":672},{"name":"model04_1_2_texcoords","componentType":5126,"count":112,"min":[0.287200003862381,0.3010999858379364],"max":[0.6894999742507935,0.703499972820282],"type":"VEC2","bufferView":2,"byteOffset":448},{"name":"model04_1_2_indices","componentType":5123,"count":168,"min":[0],"max":[111],"type":"SCALAR","bufferView":3,"byteOffset":312}],"asset":{"generator":"obj2gltf","version":"2.0"},"buffers":[{"name":"model04","byteLength":263840,"uri":"data:application/octet-stream;base64,"}],"bufferViews":[{"name":"bufferView_0","buffer":0,"byteLength":2016,"byteOffset":0,"byteStride":12,"target":34962},{"name":"bufferView_1","buffer":0,"byteLength":2016,"byteOffset":2016,"byteStride":12,"target":34962},{"name":"bufferView_2","buffer":0,"byteLength":1344,"byteOffset":4032,"byteStride":8,"target":34962},{"name":"bufferView_3","buffer":0,"byteLength":648,"byteOffset":5376,"target":34963},{"buffer":0,"byteOffset":6024,"byteLength":113046},{"buffer":0,"byteOffset":119070,"byteLength":25884},{"buffer":0,"byteOffset":144954,"byteLength":118883}],"images":[{"name":"limit40","mimeType":"image/jpeg","bufferView":4},{"name":"beijing","mimeType":"image/jpeg","bufferView":5},{"name":"stop04","mimeType":"image/jpeg","bufferView":6}],"materials":[{"name":"03___Default","pbrMetallicRoughness":{"baseColorTexture":{"index":0},"baseColorFactor":[1,1,1,1],"metallicFactor":0,"roughnessFactor":0.99},"emissiveFactor":[0,0,0],"alphaMode":"OPAQUE","doubleSided":false},{"name":"02___Default","pbrMetallicRoughness":{"baseColorTexture":{"index":1},"baseColorFactor":[1,1,1,1],"metallicFactor":0,"roughnessFactor":0.99},"emissiveFactor":[0,0,0],"alphaMode":"OPAQUE","doubleSided":false},{"name":"04___Default","pbrMetallicRoughness":{"baseColorTexture":{"index":2},"baseColorFactor":[1,1,1,1],"metallicFactor":0,"roughnessFactor":0.99},"emissiveFactor":[0,0,0],"alphaMode":"OPAQUE","doubleSided":false}],"meshes":[{"name":"model04_1","primitives":[{"attributes":{"POSITION":0,"NORMAL":1,"TEXCOORD_0":2},"indices":3,"material":0,"mode":4},{"attributes":{"POSITION":4,"NORMAL":5,"TEXCOORD_0":6},"indices":7,"material":1,"mode":4},{"attributes":{"POSITION":8,"NORMAL":9,"TEXCOORD_0":10},"indices":11,"material":2,"mode":4}]}],"nodes":[{"name":"model04","mesh":0}],"samplers":[{"magFilter":9729,"minFilter":9986,"wrapS":10497,"wrapT":10497}],"scene":0,"scenes":[{"nodes":[0]}],"textures":[{"name":"limit40","sampler":0,"source":0},{"name":"beijing","sampler":0,"source":1},{"name":"stop04","sampler":0,"source":2}]}