{"accessors":[{"name":"model11_1_0_positions","componentType":5126,"count":152,"min":[-0.042100001126527786,-1.2312999963760376,-0.6144999861717224],"max":[0.0421999990940094,1.2311999797821045,0.6144999861717224],"type":"VEC3","bufferView":0,"byteOffset":0},{"name":"model11_1_0_normals","componentType":5126,"count":152,"min":[-0.9999801516532898,-0.8757214546203613,-0.8773998618125916],"max":[0.9063642024993896,0.8757214546203613,0.8773998618125916],"type":"VEC3","bufferView":1,"byteOffset":0},{"name":"model11_1_0_texcoords","componentType":5126,"count":152,"min":[0.0005000000237487257,0.0005000000237487257],"max":[0.9994999766349792,0.9994999766349792],"type":"VEC2","bufferView":2,"byteOffset":0},{"name":"model11_1_0_indices","componentType":5123,"count":228,"min":[0],"max":[151],"type":"SCALAR","bufferView":3,"byteOffset":0}],"asset":{"generator":"obj2gltf","version":"2.0"},"buffers":[{"name":"model11","byteLength":56864,"uri":"data:application/octet-stream;base64,"}],"bufferViews":[{"name":"bufferView_0","buffer":0,"byteLength":1824,"byteOffset":0,"byteStride":12,"target":34962},{"name":"bufferView_1","buffer":0,"byteLength":1824,"byteOffset":1824,"byteStride":12,"target":34962},{"name":"bufferView_2","buffer":0,"byteLength":1216,"byteOffset":3648,"byteStride":8,"target":34962},{"name":"bufferView_3","buffer":0,"byteLength":456,"byteOffset":4864,"target":34963},{"buffer":0,"byteOffset":5320,"byteLength":51541}],"images":[{"name":"lp03","mimeType":"image/png","bufferView":4}],"materials":[{"name":"wire_154154229","pbrMetallicRoughness":{"baseColorTexture":{"index":0},"baseColorFactor":[1,1,1,1],"metallicFactor":0,"roughnessFactor":0.99},"emissiveFactor":[0,0,0],"alphaMode":"OPAQUE","doubleSided":false}],"meshes":[{"name":"model11_1","primitives":[{"attributes":{"POSITION":0,"NORMAL":1,"TEXCOORD_0":2},"indices":3,"material":0,"mode":4}]}],"nodes":[{"name":"model11","mesh":0}],"samplers":[{"magFilter":9729,"minFilter":9986,"wrapS":10497,"wrapT":10497}],"scene":0,"scenes":[{"nodes":[0]}],"textures":[{"name":"lp03","sampler":0,"source":0}]}