<?xml version="1.0" standalone="no"?><!DOCTYPE svg PUBLIC "-//W3C//DTD SVG 1.1//EN" "http://www.w3.org/Graphics/SVG/1.1/DTD/svg11.dtd"><svg class="icon" width="200px" height="200.00px" viewBox="0 0 1024 1024" version="1.1" xmlns="http://www.w3.org/2000/svg"><path d="M352.256 901.12c114.176 83.968 212.48 83.968 294.912 0s70.656-216.576-36.352-397.824L417.28 411.648l-159.744 171.52 34.816 265.216L352.256 901.12z" fill="#FFC2C2" /><path d="M744.96 310.784l-70.144 71.68s0-286.72-234.496-382.464c0 0-23.552 262.656-140.8 358.4s-351.232 382.464 117.248 597.504c0 0-234.496-262.656 70.144-454.144 0 0-23.552 95.744 93.696 190.976 117.248 95.744 0 262.656 0 262.656s562.688-142.848 164.352-644.608z" fill="#F95050" /></svg>