<?xml version="1.0" standalone="no"?><!DOCTYPE svg PUBLIC "-//W3C//DTD SVG 1.1//EN" "http://www.w3.org/Graphics/SVG/1.1/DTD/svg11.dtd"><svg class="icon" width="200px" height="157.06px" viewBox="0 0 1304 1024" version="1.1" xmlns="http://www.w3.org/2000/svg"><path d="M1078.272 815.104h-319.488l-76.288 97.792c-18.944 23.04-52.224 28.16-75.264 9.216-4.096-2.56-6.656-5.12-9.216-9.216l-76.288-97.792h-302.08c-58.88 0-107.52-48.128-107.52-107.52V197.632c0-58.88 48.128-107.52 107.52-107.52h859.136c58.88 0 107.52 48.128 107.52 107.52v509.952c-1.024 59.392-49.152 107.52-108.032 107.52z" fill="#2F77F1" /><path d="M407.04 385.536c37.376 0 67.072 29.696 67.072 67.072s-29.696 67.072-67.072 67.072-67.072-29.696-67.072-67.072 29.184-67.072 67.072-67.072z m241.664 0c37.376 0 67.072 29.696 67.072 67.072s-29.696 67.072-67.072 67.072-67.072-29.696-67.072-67.072 29.184-67.072 67.072-67.072z m241.664 0c37.376 0 67.072 29.696 67.072 67.072s-29.696 67.072-67.072 67.072-67.072-29.696-67.072-67.072 29.184-67.072 67.072-67.072z" fill="#FFFFFF" /></svg>