<?xml version="1.0" standalone="no"?><!DOCTYPE svg PUBLIC "-//W3C//DTD SVG 1.1//EN" "http://www.w3.org/Graphics/SVG/1.1/DTD/svg11.dtd"><svg class="icon" width="200px" height="200.00px" viewBox="0 0 1024 1024" version="1.1" xmlns="http://www.w3.org/2000/svg"><path fill="#666666" d="M1001.662 796.544c48.896 84.907 7.68 157.013-87.552 157.013H110.782c-97.835 0-139.05-69.504-90.112-157.013l401.664-666.88c48.896-87.552 128.725-87.552 177.664 0l401.664 666.88z m-522.496-500.01v341.333a32 32 0 1 0 64 0V296.533a32 32 0 1 0-64 0z m0 469.333v42.666a32 32 0 1 0 64 0v-42.666a32 32 0 1 0-64 0z"  /></svg>